# xmcd
#
# Track frame offsets:
#	150
#	20653
#	37706
#	54316
#	68382
#	85318
#	105186
#	124649
#	141142
#	154107
#	171392
#	181567
#	202002
#
# Disc length: 2970 seconds
#
# Revision: 0
# Processed by: cddbd v1.5.2PL0 Copyright (c) Steve Scherf et al.
# Submitted via: EasyCDDAExtractor 12.0.0.1
#
DISCID=9a0b980d
DTITLE=Anne Murray - What a Wonderful World
DYEAR=1900
DGENRE=
TTITLE0=bridge over troubled waters
TTITLE1=elijah
TTITLE2=how great thou art
TTITLE3=i can see clearly
TTITLE4=if you see my saviour
TTITLE5=in the garden
TTITLE6=jacob's ladder
TTITLE7=nearer my god to thee
TTITLE8=put a little love in your heart
TTITLE9=song of bernadette
TTITLE10=the lord's prayer
TTITLE11=whispering hope
TTITLE12=you've got a friend
EXTD=
EXTT0=
EXTT1=
EXTT2=
EXTT3=
EXTT4=
EXTT5=
EXTT6=
EXTT7=
EXTT8=
EXTT9=
EXTT10=
EXTT11=
EXTT12=
PLAYORDER=
